# xmcd CD database file
#
# Track frame offsets:
#	150
#	12827
#	31142
#	51880
#	75185
#	81707
#	105685
#	131430
#	146637
#	176320
#	193512
#	220347
#
# Disc length: 3238 seconds
#
# Revision: 0
# Processed by: cddbd v1.5.2PL0 Copyright (c) Steve Scherf et al.
# Submitted via: CDex 1.51
#
DISCID=990ca40c
DTITLE=Archimusic - 13 Arpents de malheur
DYEAR=2001
DGENRE=Jazz
TTITLE0=13 Arpents de malheur - n°1
TTITLE1=13 Arpents de malheur - n°2
TTITLE2=13 Arpents de malheur - n°3
TTITLE3=13 Arpents de malheur - n°4
TTITLE4=13 Arpents de malheur - n°5
TTITLE5=13 Arpents de malheur - n°6
TTITLE6=En pierre d'air
TTITLE7=Format-âge
TTITLE8=Les yeux de cire
TTITLE9=Parméric - n°1
TTITLE10=Parméric - n°2
TTITLE11=Parméric - n°3
EXTD=YEAR: 2001
EXTT0=
EXTT1=
EXTT2=
EXTT3=
EXTT4=
EXTT5=
EXTT6=
EXTT7=
EXTT8=
EXTT9=
EXTT10=
EXTT11=
PLAYORDER=
